# xmcd
#
# Track frame offsets:
# 150
# 18556
# 37882
# 54226
# 75558
# 95132
# 113351
# 129101
# 149534
# 173117
# 192730
# 210218
# 225019
#
# Disc length: 3290 seconds
#
#
# Revision: 1
# Processed by: cddbd v1.5.2PL0 Copyright (c) Steve Scherf et al.
# Submitted via: FreeRIP 2.951 
#
DISCID=990cd80d
DTITLE=Pixote-Pira - Pixote-Pira
DYEAR=1900
DGENRE=
TTITLE0=Vai Valer a Pena
TTITLE1=Sigilo de Amor
TTITLE2=Pira
TTITLE3=Coisas do Amor[Fã de Carteirinha]
TTITLE4=Borogodó
TTITLE5=Love Perfeito
TTITLE6=Pra Cuidar de Você
TTITLE7=Pixote
TTITLE8=Leve Impressão
TTITLE9=Amor Refém
TTITLE10=Partido Alto Delas
TTITLE11=O Que Está Acontecendo
TTITLE12=Musica de Capoeira[Dim-Dim-Dim]
EXTD=
EXTT0=
EXTT1=
EXTT2=
EXTT3=
EXTT4=
EXTT5=
EXTT6=
EXTT7=
EXTT8=
EXTT9=
EXTT10=
EXTT11=
EXTT12=
PLAYORDER=
